<mxfile host="65bd71144e">
    <diagram id="PKRFj3QcJoAeDUIvE3Po" name="flowchart">
        <mxGraphModel dx="517" dy="270" grid="1" gridSize="10" guides="1" tooltips="1" connect="1" arrows="1" fold="1" page="1" pageScale="1" pageWidth="827" pageHeight="1169" math="0" shadow="0">
            <root>
                <mxCell id="0"/>
                <mxCell id="1" parent="0"/>
                <mxCell id="4" value="" style="edgeStyle=none;html=1;" parent="1" source="2" edge="1">
                    <mxGeometry relative="1" as="geometry">
                        <mxPoint x="280" y="140" as="targetPoint"/>
                    </mxGeometry>
                </mxCell>
                <mxCell id="2" value="&lt;p&gt;&lt;font face=&quot;Times New Roman&quot; style=&quot;font-size: 13px&quot;&gt;Start&lt;/font&gt;&lt;/p&gt;" style="ellipse;whiteSpace=wrap;html=1;" parent="1" vertex="1">
                    <mxGeometry x="220" y="60" width="120" height="60" as="geometry"/>
                </mxCell>
                <mxCell id="6" value="" style="edgeStyle=none;html=1;" parent="1" target="5" edge="1">
                    <mxGeometry relative="1" as="geometry">
                        <mxPoint x="280" y="200" as="sourcePoint"/>
                    </mxGeometry>
                </mxCell>
                <mxCell id="8" value="" style="edgeStyle=none;html=1;" parent="1" source="5" edge="1">
                    <mxGeometry relative="1" as="geometry">
                        <mxPoint x="280" y="320" as="targetPoint"/>
                    </mxGeometry>
                </mxCell>
                <mxCell id="5" value="&lt;p&gt;&lt;font face=&quot;Times New Roman&quot; style=&quot;font-size: 12px&quot;&gt;int i = 0&amp;nbsp;&lt;/font&gt;&lt;/p&gt;" style="whiteSpace=wrap;html=1;" parent="1" vertex="1">
                    <mxGeometry x="160" y="250" width="240" height="40" as="geometry"/>
                </mxCell>
                <mxCell id="11" value="&lt;p&gt;No&lt;/p&gt;" style="edgeStyle=none;html=1;exitX=1;exitY=0.5;exitDx=0;exitDy=0;fontFamily=Times New Roman;fontSize=13;" parent="1" source="9" edge="1">
                    <mxGeometry x="-0.8947" relative="1" as="geometry">
                        <mxPoint x="410" y="390" as="sourcePoint"/>
                        <Array as="points">
                            <mxPoint x="440" y="350"/>
                            <mxPoint x="440" y="680"/>
                            <mxPoint x="280" y="680"/>
                        </Array>
                        <mxPoint as="offset"/>
                        <mxPoint x="280" y="720" as="targetPoint"/>
                    </mxGeometry>
                </mxCell>
                <mxCell id="TudtLtAqZZUlXH-EPQey-24" value="&lt;font color=&quot;#000000&quot;&gt;Yes&lt;/font&gt;" style="edgeStyle=none;html=1;exitX=0.5;exitY=1;exitDx=0;exitDy=0;fontFamily=Times New Roman;fontSize=13;fontColor=#FFFFFF;" parent="1" source="9" edge="1">
                    <mxGeometry relative="1" as="geometry">
                        <mxPoint x="280" y="410" as="targetPoint"/>
                    </mxGeometry>
                </mxCell>
                <mxCell id="9" value="&lt;p class=&quot;p1&quot; style=&quot;margin: 0px ; font-stretch: normal ; line-height: normal ; font-size: 13px&quot;&gt;&lt;font face=&quot;Times New Roman&quot; style=&quot;font-size: 13px&quot;&gt;&lt;br&gt;&lt;/font&gt;&lt;/p&gt;&lt;p class=&quot;p1&quot; style=&quot;margin: 0px ; font-stretch: normal ; line-height: normal ; font-size: 13px&quot;&gt;&lt;span class=&quot;s1&quot;&gt;&lt;font face=&quot;Times New Roman&quot; style=&quot;font-size: 13px&quot;&gt;i &amp;lt; array.Length&amp;nbsp;&lt;/font&gt;&lt;/span&gt;&lt;/p&gt;&lt;p class=&quot;p1&quot; style=&quot;margin: 0px ; font-stretch: normal ; font-size: 9px ; line-height: normal ; font-family: &amp;#34;menlo&amp;#34;&quot;&gt;&lt;br&gt;&lt;/p&gt;" style="rhombus;whiteSpace=wrap;html=1;" parent="1" vertex="1">
                    <mxGeometry x="190" y="320" width="180" height="60" as="geometry"/>
                </mxCell>
                <mxCell id="15" value="Yes" style="edgeStyle=none;html=1;" parent="1" source="12" target="14" edge="1">
                    <mxGeometry relative="1" as="geometry"/>
                </mxCell>
                <mxCell id="12" value="&lt;p class=&quot;p1&quot; style=&quot;margin: 0px ; font-stretch: normal ; line-height: normal&quot;&gt;&lt;span class=&quot;s1&quot;&gt;&lt;font style=&quot;font-size: 13px&quot; face=&quot;Times New Roman&quot;&gt;array[i].Length &amp;lt;= 3&lt;/font&gt;&lt;/span&gt;&lt;/p&gt;" style="rhombus;whiteSpace=wrap;html=1;" parent="1" vertex="1">
                    <mxGeometry x="190" y="450" width="180" height="80" as="geometry"/>
                </mxCell>
                <mxCell id="14" value="&lt;p class=&quot;p1&quot; style=&quot;margin: 0px ; font-stretch: normal ; font-size: 9px ; line-height: normal&quot;&gt;&lt;span class=&quot;s1&quot; style=&quot;font-size: 13px&quot;&gt;&lt;font style=&quot;font-size: 13px&quot; face=&quot;Times New Roman&quot;&gt;newArray[count] = array[i]&lt;span class=&quot;Apple-converted-space&quot;&gt;&amp;nbsp;&lt;/span&gt;&lt;/font&gt;&lt;/span&gt;&lt;/p&gt;" style="whiteSpace=wrap;html=1;" parent="1" vertex="1">
                    <mxGeometry x="160" y="585" width="230" height="30" as="geometry"/>
                </mxCell>
                <mxCell id="18" value="" style="endArrow=classic;html=1;exitX=0;exitY=0.5;exitDx=0;exitDy=0;entryX=0;entryY=0.5;entryDx=0;entryDy=0;" parent="1" source="14" target="9" edge="1">
                    <mxGeometry width="50" height="50" relative="1" as="geometry">
                        <mxPoint x="340" y="500" as="sourcePoint"/>
                        <mxPoint x="390" y="450" as="targetPoint"/>
                        <Array as="points">
                            <mxPoint x="90" y="600"/>
                            <mxPoint x="90" y="350"/>
                        </Array>
                    </mxGeometry>
                </mxCell>
                <mxCell id="19" value="&lt;p style=&quot;font-size: 13px;&quot;&gt;No&lt;/p&gt;" style="endArrow=classic;html=1;exitX=0;exitY=0.5;exitDx=0;exitDy=0;entryX=1;entryY=0.5;entryDx=0;entryDy=0;labelBackgroundColor=default;fontFamily=Times New Roman;fontSize=13;" parent="1" source="12" target="20" edge="1">
                    <mxGeometry width="50" height="50" relative="1" as="geometry">
                        <mxPoint x="340" y="500" as="sourcePoint"/>
                        <mxPoint x="90" y="490" as="targetPoint"/>
                    </mxGeometry>
                </mxCell>
                <mxCell id="20" value="&lt;p&gt;&lt;font style=&quot;font-size: 13px&quot; face=&quot;Times New Roman&quot;&gt;count++;&lt;/font&gt;&lt;/p&gt;" style="rounded=0;whiteSpace=wrap;html=1;" parent="1" vertex="1">
                    <mxGeometry x="50" y="470" width="80" height="40" as="geometry"/>
                </mxCell>
                <mxCell id="21" value="" style="endArrow=classic;html=1;exitX=0;exitY=0.5;exitDx=0;exitDy=0;entryX=0.5;entryY=1;entryDx=0;entryDy=0;" parent="1" source="14" target="20" edge="1">
                    <mxGeometry width="50" height="50" relative="1" as="geometry">
                        <mxPoint x="310" y="500" as="sourcePoint"/>
                        <mxPoint x="360" y="450" as="targetPoint"/>
                        <Array as="points">
                            <mxPoint x="90" y="600"/>
                        </Array>
                    </mxGeometry>
                </mxCell>
                <mxCell id="TudtLtAqZZUlXH-EPQey-22" value="&lt;p class=&quot;p1&quot; style=&quot;margin: 0px ; font-stretch: normal ; line-height: normal&quot;&gt;&lt;font face=&quot;Times New Roman&quot; style=&quot;font-size: 13px&quot; color=&quot;#000000&quot;&gt;int count = 0;&lt;/font&gt;&lt;br&gt;&lt;/p&gt;" style="shape=parallelogram;perimeter=parallelogramPerimeter;whiteSpace=wrap;html=1;fixedSize=1;fontSize=13;fontColor=#FFFFFF;align=center;" parent="1" vertex="1">
                    <mxGeometry x="150" y="140" width="250" height="60" as="geometry"/>
                </mxCell>
                <mxCell id="TudtLtAqZZUlXH-EPQey-25" style="edgeStyle=none;html=1;exitX=0.5;exitY=1;exitDx=0;exitDy=0;entryX=0.5;entryY=0;entryDx=0;entryDy=0;fontFamily=Times New Roman;fontSize=13;fontColor=#FFFFFF;" parent="1" source="TudtLtAqZZUlXH-EPQey-23" target="12" edge="1">
                    <mxGeometry relative="1" as="geometry"/>
                </mxCell>
                <mxCell id="TudtLtAqZZUlXH-EPQey-23" value="&lt;font style=&quot;font-size: 13px&quot; color=&quot;#000000&quot;&gt;i++&lt;/font&gt;" style="rounded=0;whiteSpace=wrap;html=1;fontFamily=Times New Roman;fontSize=13;fontColor=#FFFFFF;" parent="1" vertex="1">
                    <mxGeometry x="235" y="410" width="90" height="20" as="geometry"/>
                </mxCell>
                <mxCell id="TudtLtAqZZUlXH-EPQey-31" style="edgeStyle=none;html=1;exitX=0.5;exitY=1;exitDx=0;exitDy=0;entryX=0.5;entryY=0;entryDx=0;entryDy=0;fontFamily=Times New Roman;fontSize=13;fontColor=#FFFFFF;" parent="1" source="TudtLtAqZZUlXH-EPQey-26" target="TudtLtAqZZUlXH-EPQey-28" edge="1">
                    <mxGeometry relative="1" as="geometry"/>
                </mxCell>
                <mxCell id="TudtLtAqZZUlXH-EPQey-26" value="&lt;p class=&quot;p1&quot; style=&quot;margin: 0px ; font-stretch: normal ; line-height: normal&quot;&gt;&lt;span class=&quot;s1&quot;&gt;&lt;font style=&quot;font-size: 13px&quot; color=&quot;#000000&quot;&gt;int i = 0&lt;/font&gt;&lt;/span&gt;&lt;/p&gt;" style="rounded=0;whiteSpace=wrap;html=1;fontFamily=Times New Roman;fontSize=13;fontColor=#FFFFFF;" parent="1" vertex="1">
                    <mxGeometry x="220" y="720" width="120" height="30" as="geometry"/>
                </mxCell>
                <mxCell id="TudtLtAqZZUlXH-EPQey-30" style="edgeStyle=none;html=1;exitX=0.5;exitY=1;exitDx=0;exitDy=0;entryX=0.5;entryY=0;entryDx=0;entryDy=0;fontFamily=Times New Roman;fontSize=13;fontColor=#FFFFFF;" parent="1" source="TudtLtAqZZUlXH-EPQey-28" target="TudtLtAqZZUlXH-EPQey-29" edge="1">
                    <mxGeometry relative="1" as="geometry"/>
                </mxCell>
                <mxCell id="TudtLtAqZZUlXH-EPQey-32" value="&lt;font color=&quot;#000000&quot;&gt;Yes&lt;/font&gt;" style="edgeLabel;html=1;align=center;verticalAlign=middle;resizable=0;points=[];fontSize=13;fontFamily=Times New Roman;fontColor=#FFFFFF;" parent="TudtLtAqZZUlXH-EPQey-30" vertex="1" connectable="0">
                    <mxGeometry x="-0.0833" relative="1" as="geometry">
                        <mxPoint as="offset"/>
                    </mxGeometry>
                </mxCell>
                <mxCell id="TudtLtAqZZUlXH-EPQey-34" value="&lt;font color=&quot;#000000&quot;&gt;No&lt;/font&gt;" style="edgeStyle=none;html=1;exitX=1;exitY=0.5;exitDx=0;exitDy=0;fontFamily=Times New Roman;fontSize=13;fontColor=#FFFFFF;" parent="1" source="TudtLtAqZZUlXH-EPQey-28" target="TudtLtAqZZUlXH-EPQey-33" edge="1">
                    <mxGeometry relative="1" as="geometry"/>
                </mxCell>
                <mxCell id="TudtLtAqZZUlXH-EPQey-28" value="&lt;p class=&quot;p1&quot; style=&quot;margin: 0px ; font-stretch: normal ; line-height: normal&quot;&gt;&lt;span class=&quot;s1&quot;&gt;&lt;font style=&quot;font-size: 13px&quot; color=&quot;#000000&quot;&gt;i &amp;lt; array.Length;&lt;/font&gt;&lt;/span&gt;&lt;/p&gt;" style="rhombus;whiteSpace=wrap;html=1;fontFamily=Times New Roman;fontSize=13;fontColor=#FFFFFF;" parent="1" vertex="1">
                    <mxGeometry x="210" y="770" width="140" height="60" as="geometry"/>
                </mxCell>
                <mxCell id="TudtLtAqZZUlXH-EPQey-35" style="edgeStyle=none;html=1;fontFamily=Times New Roman;fontSize=13;fontColor=#FFFFFF;entryX=0;entryY=0.5;entryDx=0;entryDy=0;" parent="1" source="TudtLtAqZZUlXH-EPQey-29" target="TudtLtAqZZUlXH-EPQey-28" edge="1">
                    <mxGeometry relative="1" as="geometry">
                        <mxPoint x="200" y="820" as="targetPoint"/>
                        <Array as="points">
                            <mxPoint x="180" y="885"/>
                            <mxPoint x="180" y="800"/>
                        </Array>
                    </mxGeometry>
                </mxCell>
                <mxCell id="TudtLtAqZZUlXH-EPQey-29" value="&lt;p class=&quot;p1&quot; style=&quot;margin: 0px ; font-stretch: normal ; line-height: normal&quot;&gt;&lt;span class=&quot;s1&quot;&gt;&lt;font style=&quot;font-size: 13px&quot;&gt;i++&lt;/font&gt;&lt;/span&gt;&lt;/p&gt;" style="rounded=0;whiteSpace=wrap;html=1;fontFamily=Times New Roman;fontSize=13;fontColor=#000000;" parent="1" vertex="1">
                    <mxGeometry x="220" y="870" width="120" height="30" as="geometry"/>
                </mxCell>
                <mxCell id="TudtLtAqZZUlXH-EPQey-33" value="&lt;p class=&quot;p1&quot; style=&quot;margin: 0px ; font-stretch: normal ; line-height: normal&quot;&gt;&lt;span class=&quot;s1&quot;&gt;&lt;font style=&quot;font-size: 13px&quot;&gt;Write($&quot;{array[i]} &quot;)&lt;/font&gt;&lt;/span&gt;&lt;/p&gt;" style="ellipse;whiteSpace=wrap;html=1;fontFamily=Times New Roman;fontSize=13;fontColor=#000000;" parent="1" vertex="1">
                    <mxGeometry x="400" y="760" width="170" height="80" as="geometry"/>
                </mxCell>
            </root>
        </mxGraphModel>
    </diagram>
</mxfile>